<svg xmlns="http://www.w3.org/2000/svg" width="24.84" height="27" viewBox="0 0 24.84 27">
  <metadata><?xpacket begin="﻿" id="W5M0MpCehiHzreSzNTczkc9d"?>
<x:xmpmeta xmlns:x="adobe:ns:meta/" x:xmptk="Adobe XMP Core 5.6-c140 79.160451, 2017/05/06-01:08:21        ">
   <rdf:RDF xmlns:rdf="http://www.w3.org/1999/02/22-rdf-syntax-ns#">
      <rdf:Description rdf:about=""/>
   </rdf:RDF>
</x:xmpmeta>
                                                                                                    
                                                                                                    
                                                                                                    
                                                                                                    
                                                                                                    
                                                                                                    
                                                                                                    
                                                                                                    
                                                                                                    
                                                                                                    
                                                                                                    
                                                                                                    
                                                                                                    
                                                                                                    
                                                                                                    
                                                                                                    
                                                                                                    
                                                                                                    
                                                                                                    
                                                                                                    
                           
<?xpacket end="w"?></metadata>
<defs>
    <style>
      .cls-1 {
        fill: #fff;
        fill-rule: evenodd;
      }
    </style>
  </defs>
  <path id="cart" class="cls-1" d="M1696.26,33.2h-2.38v2.984a1.968,1.968,0,0,1-1.44,3.278,1.964,1.964,0,0,1-1.29-3.414V33.2H1680v2.9a1.992,1.992,0,0,1,.58,1.394,1.94,1.94,0,1,1-3.88,0,1.983,1.983,0,0,1,.57-1.393V33.2h-2.69a1.6,1.6,0,0,0-1.58,1.606V49.391A1.6,1.6,0,0,0,1674.58,51h21.68a1.6,1.6,0,0,0,1.59-1.606V34.807A1.6,1.6,0,0,0,1696.26,33.2Zm-3.75,5.108a0.807,0.807,0,0,1-.8-0.811V31.835a6.141,6.141,0,1,0-12.28,0V37.5a0.8,0.8,0,0,1-.79.811,0.807,0.807,0,0,1-.8-0.811V31.835a7.736,7.736,0,1,1,15.47,0V37.5A0.807,0.807,0,0,1,1692.51,38.307Z" transform="translate(-1673 -24)"/>
</svg>
