<svg xmlns="http://www.w3.org/2000/svg" width="14.91" height="26.125" viewBox="0 0 14.91 26.125">
  <metadata><?xpacket begin="﻿" id="W5M0MpCehiHzreSzNTczkc9d"?>
<x:xmpmeta xmlns:x="adobe:ns:meta/" x:xmptk="Adobe XMP Core 5.6-c140 79.160451, 2017/05/06-01:08:21        ">
   <rdf:RDF xmlns:rdf="http://www.w3.org/1999/02/22-rdf-syntax-ns#">
      <rdf:Description rdf:about=""/>
   </rdf:RDF>
</x:xmpmeta>
<defs>
    <style>
      .cls-1 {
        fill: #fff;
        fill-rule: evenodd;
      }
    </style>
  </defs>
  <path id="fb" class="cls-1" d="M1406.34,26.277l-3.58-.006c-4.01,0-6.61,2.523-6.61,6.428v2.964h-3.59a0.546,0.546,0,0,0-.56.533v4.294a0.546,0.546,0,0,0,.56.533h3.59V51.859a0.555,0.555,0,0,0,.57.532h4.68a0.555,0.555,0,0,0,.57-0.532V41.024h4.2a0.546,0.546,0,0,0,.56-0.533V36.2a0.537,0.537,0,0,0-.16-0.377,0.591,0.591,0,0,0-.4-0.156h-4.2V33.151c0-1.207.3-1.821,1.96-1.821h2.41a0.546,0.546,0,0,0,.56-0.532V26.81A0.547,0.547,0,0,0,1406.34,26.277Z" transform="translate(-1392 -26.281)"/>
</svg>
