<svg xmlns="http://www.w3.org/2000/svg" width="26.07" height="20.875" viewBox="0 0 26.07 20.875">
  <metadata><?xpacket begin="﻿" id="W5M0MpCehiHzreSzNTczkc9d"?>
<x:xmpmeta xmlns:x="adobe:ns:meta/" x:xmptk="Adobe XMP Core 5.6-c140 79.160451, 2017/05/06-01:08:21        ">
   <rdf:RDF xmlns:rdf="http://www.w3.org/1999/02/22-rdf-syntax-ns#">
      <rdf:Description rdf:about=""/>
   </rdf:RDF>
</x:xmpmeta>
<?xpacket end="w"?></metadata>
<defs>
    <style>
      .cls-1 {
        fill: #fff;
        fill-rule: evenodd;
      }
    </style>
  </defs>
  <path id="g_" data-name="g+" class="cls-1" d="M1535.36,37.9h-9.34v3.25h5.7a6.716,6.716,0,0,1-6.37,4.875,6.971,6.971,0,0,1,0-13.93,6.484,6.484,0,0,1,4.74,2.067l2.26-2.565a9.745,9.745,0,0,0-7-2.985,10.232,10.232,0,0,0-10,10.447,10.233,10.233,0,0,0,10,10.447,10.349,10.349,0,0,0,10.01-8.358V37.9h0Zm6.06-.006h-1.91V35.9h-1.64v1.994h-1.91V39.6h1.91V41.6h1.64V39.6h1.91v-1.71Z" transform="translate(-1515.34 -28.625)"/>
</svg>
