<svg xmlns="http://www.w3.org/2000/svg" width="27.47" height="28" viewBox="0 0 27.47 28">
  <metadata><?xpacket begin="﻿" id="W5M0MpCehiHzreSzNTczkc9d"?>
<x:xmpmeta xmlns:x="adobe:ns:meta/" x:xmptk="Adobe XMP Core 5.6-c140 79.160451, 2017/05/06-01:08:21        ">
   <rdf:RDF xmlns:rdf="http://www.w3.org/1999/02/22-rdf-syntax-ns#">
      <rdf:Description rdf:about=""/>
   </rdf:RDF>
</x:xmpmeta>
<?xpacket end="w"?></metadata>
<defs>
    <style>
      .cls-1 {
        fill: #fff;
        fill-rule: evenodd;
      }
    </style>
  </defs>
  <path id="insta" class="cls-1" d="M1598.41,25.014H1586.1a7.661,7.661,0,0,0-7.58,7.723v12.54A7.66,7.66,0,0,0,1586.1,53h12.31a7.662,7.662,0,0,0,7.59-7.722V32.736A7.663,7.663,0,0,0,1598.41,25.014Zm5.15,20.262a5.2,5.2,0,0,1-5.15,5.24H1586.1a5.2,5.2,0,0,1-5.15-5.24V32.736a5.2,5.2,0,0,1,5.15-5.24h12.31a5.2,5.2,0,0,1,5.15,5.24v12.54h0Zm-11.3-13.48a7.212,7.212,0,1,0,7.08,7.211A7.15,7.15,0,0,0,1592.26,31.8Zm0,11.939a4.729,4.729,0,1,1,4.64-4.728A4.7,4.7,0,0,1,1592.26,43.734Zm7.38-14.044a1.792,1.792,0,0,0-1.27.533,1.854,1.854,0,0,0,0,2.575,1.8,1.8,0,0,0,1.27.533,1.774,1.774,0,0,0,1.26-.533,1.854,1.854,0,0,0,0-2.575A1.769,1.769,0,0,0,1599.64,29.69Z" transform="translate(-1578.53 -25)"/>
</svg>
