<svg xmlns="http://www.w3.org/2000/svg" width="24.85" height="20.906" viewBox="0 0 24.85 20.906">
  <metadata><?xpacket begin="﻿" id="W5M0MpCehiHzreSzNTczkc9d"?>
<x:xmpmeta xmlns:x="adobe:ns:meta/" x:xmptk="Adobe XMP Core 5.6-c140 79.160451, 2017/05/06-01:08:21        ">
   <rdf:RDF xmlns:rdf="http://www.w3.org/1999/02/22-rdf-syntax-ns#">
      <rdf:Description rdf:about=""/>
   </rdf:RDF>
</x:xmpmeta>
<?xpacket end="w"?></metadata>
<defs>
    <style>
      .cls-1 {
        fill: #fff;
        fill-rule: evenodd;
      }
    </style>
  </defs>
  <path id="tw" class="cls-1" d="M1475.71,29.227a10.1,10.1,0,0,1-3.24,1.281,5,5,0,0,0-3.72-1.666,5.187,5.187,0,0,0-5.09,5.275,5.286,5.286,0,0,0,.13,1.2,14.305,14.305,0,0,1-10.5-5.513,5.4,5.4,0,0,0,1.58,7.043,4.951,4.951,0,0,1-2.31-.662v0.066a5.242,5.242,0,0,0,4.09,5.174,5.015,5.015,0,0,1-1.34.185,4.906,4.906,0,0,1-.96-0.1,5.109,5.109,0,0,0,4.75,3.665,9.993,9.993,0,0,1-6.32,2.257,10.4,10.4,0,0,1-1.22-.072,14.076,14.076,0,0,0,7.81,2.371c9.37,0,14.49-8.04,14.49-15.012l-0.01-.684a10.383,10.383,0,0,0,2.54-2.728,9.871,9.871,0,0,1-2.92.831A5.276,5.276,0,0,0,1475.71,29.227Z" transform="translate(-1451.56 -28.844)"/>
</svg>
